<svg xmlns="http://www.w3.org/2000/svg" viewBox="0 0 187.09 110.55"><rect width="187.09" height="110.55" fill="#101237"/><path d="M73.31,58.48c1,4.27,3.78,6.77,9,6.77,5.79,0,8-2.9,8-6.37,0-3.62-1.61-5.84-8.63-7.58s-9.84-4-9.84-8.7c0-4.35,3.15-8.34,10.1-8.34,7.18,0,10.2,4.38,10.62,8.38H89.76c-.71-3.41-2.91-5.9-7.94-5.9-4.56,0-7,2.13-7,5.68s2.08,4.88,8,6.36c9.1,2.27,10.48,5.93,10.48,9.88,0,4.85-3.51,9-11,9-8.08,0-11.1-4.71-11.71-9.16Z" fill="#2592d0"/><path d="M104.11,67.26V39.84a20.49,20.49,0,0,1-6.76,3.46V41a24.13,24.13,0,0,0,7.26-4.53h2.13V67.26Z" fill="#2592d0"/><path d="M134.24,51.73c0,7.1-1.85,16.09-10,16.09-8,0-10-8.28-10-15.86s2.18-15.87,10.12-15.87S134.24,44.39,134.24,51.73ZM117.06,52c0,5.93,1.21,13.42,7.16,13.42s7.25-7.16,7.25-13.69c0-5.87-1.18-13.24-7.07-13.24C118.25,38.49,117.06,45.21,117.06,52Z" fill="#2592d0"/><path d="M139,58.69a8.4,8.4,0,0,1,5.81-8.14A6.9,6.9,0,0,1,140.32,44c0-4.47,3-7.91,9-7.91,5.4,0,8.54,3.44,8.54,7.86a6.62,6.62,0,0,1-4.44,6.49,8.23,8.23,0,0,1,5.68,8.15c0,5.58-4.2,9.23-10.16,9.23C143.19,67.82,139,64.17,139,58.69Zm17.36-.11c0-4.38-2.69-6.79-7.3-6.79-5.12,0-7.35,3-7.35,6.79s2.6,6.89,7.31,6.89C153.36,65.47,156.35,63,156.35,58.58ZM143,43.88c0,2.88,1.74,5.51,6.22,5.51,4.16,0,5.9-2.17,5.9-5.34,0-2.89-1.79-5.61-6-5.61C144.66,38.44,143,40.8,143,43.88Z" fill="#2592d0"/><path d="M93.43,75.69l-.62,1.69h-.38l1.78-4.88h.44l1.85,4.88h-.41l-.62-1.69Zm1.91-.35c-.54-1.45-.82-2.14-.91-2.47h0c-.12.37-.43,1.23-.86,2.47Z" fill="#3191cf"/><path d="M99.16,72.5h1.6A2.19,2.19,0,0,1,103,74.9a2.26,2.26,0,0,1-2.26,2.48H99.16ZM99.53,77h1.17a2.1,2.1,0,0,0,0-4.18H99.53Z" fill="#3191cf"/><path d="M106.91,75h-2.47v2h2.71l-.06.35h-3V72.5h3v.35h-2.6v1.78h2.47Z" fill="#3191cf"/><path d="M109.5,77.38l-1.79-4.88h.4l.94,2.55c.27.74.57,1.56.68,2h0c.1-.37.43-1.22.7-1.94l1-2.58h.39L110,77.38Z" fill="#3191cf"/><path d="M115.48,75H113v2h2.7l0,.35h-3V72.5h3v.35H113v1.78h2.47Z" fill="#3191cf"/><path d="M116.66,72.5H117V77h2.6l-.07.35h-2.91Z" fill="#3191cf"/><path d="M124.3,74.9c0,1.34-.7,2.55-2.19,2.55a2.54,2.54,0,0,1,0-5A2.21,2.21,0,0,1,124.3,74.9Zm-4,0a1.94,1.94,0,0,0,1.78,2.18c1.25,0,1.77-1,1.77-2.19s-.59-2.13-1.76-2.13S120.35,73.82,120.35,74.92Z" fill="#3191cf"/><path d="M125.37,72.5h1.73a1.33,1.33,0,0,1,1.49,1.36,1.36,1.36,0,0,1-1.54,1.39h-1.3v2.13h-.38Zm.38,2.4h1.33c.78,0,1.11-.41,1.11-1a1,1,0,0,0-1.08-1h-1.36Z" fill="#3191cf"/><path d="M132.41,75h-2.47v2h2.71l-.06.35h-3V72.5h3v.35h-2.6v1.78h2.47Z" fill="#3191cf"/><path d="M134,75.1v2.28h-.38V72.5h1.74c.95,0,1.45.51,1.45,1.28a1.11,1.11,0,0,1-.9,1.15c.5.11.83.44.83,1.27v.19a3.29,3.29,0,0,0,.06,1h-.38a3.29,3.29,0,0,1-.07-1v-.12c0-.81-.23-1.14-1.16-1.14Zm0-.35h1.17c.85,0,1.24-.32,1.24-1s-.38-.94-1.14-.94H134Z" fill="#3191cf"/><line x1="138.47" y1="74.93" x2="157.75" y2="74.93" fill="#085594" stroke="#2095d2" stroke-miterlimit="10" stroke-width="2"/><line x1="71.68" y1="74.93" x2="90.96" y2="74.93" fill="#065498" stroke="#2c8fce" stroke-miterlimit="10" stroke-width="2"/><path d="M51.33,45.84a3.09,3.09,0,0,1-2.44-.92,3.57,3.57,0,0,1-.81-2.47V37a3.54,3.54,0,0,1,.82-2.49,3.73,3.73,0,0,1,4.86,0A3.54,3.54,0,0,1,54.58,37v5.41a3.54,3.54,0,0,1-.82,2.49A3.1,3.1,0,0,1,51.33,45.84Zm0-1.59a1.54,1.54,0,0,0,1.27-.48A2.09,2.09,0,0,0,53,42.45V37a2.05,2.05,0,0,0-.38-1.32,1.54,1.54,0,0,0-1.27-.48,1.52,1.52,0,0,0-1.26.48A2,2,0,0,0,49.68,37v5.41a2,2,0,0,0,.39,1.32A1.52,1.52,0,0,0,51.33,44.25Z" fill="#cee3f0"/><path d="M43,45.72V33.82H44.5v11.9Z" fill="#cfe0f3"/><path d="M41.33,61.06a3.1,3.1,0,0,1-2.44-.91,3.6,3.6,0,0,1-.81-2.47V52.26a3.56,3.56,0,0,1,.82-2.49,3.13,3.13,0,0,1,2.43-.9,3.1,3.1,0,0,1,2.43.9,3.54,3.54,0,0,1,.82,2.49v5.42a3.54,3.54,0,0,1-.82,2.48A3.1,3.1,0,0,1,41.33,61.06Zm0-1.59A1.54,1.54,0,0,0,42.6,59,2,2,0,0,0,43,57.68V52.26a2,2,0,0,0-.39-1.32,1.54,1.54,0,0,0-1.27-.48,1.52,1.52,0,0,0-1.26.48,2,2,0,0,0-.39,1.32v5.42A2,2,0,0,0,40.07,59,1.52,1.52,0,0,0,41.33,59.47Z" fill="#cddaed"/><path d="M62.78,60.94V49h1.46v11.9Z" fill="#d0e0f3"/><path d="M61.15,45.74a3.08,3.08,0,0,1-2.44-.91,3.61,3.61,0,0,1-.81-2.48V36.94a3.54,3.54,0,0,1,.82-2.49,3.73,3.73,0,0,1,4.86,0,3.54,3.54,0,0,1,.82,2.49v5.41a3.54,3.54,0,0,1-.82,2.49A3.13,3.13,0,0,1,61.15,45.74Zm0-1.59a1.53,1.53,0,0,0,1.26-.48,2,2,0,0,0,.39-1.32V36.94a2,2,0,0,0-.39-1.32,1.91,1.91,0,0,0-2.53,0,2,2,0,0,0-.39,1.32v5.41a2,2,0,0,0,.39,1.32A1.54,1.54,0,0,0,61.15,44.15Z" fill="#cfe0f3"/><path d="M48,61.06V49.17h1.46V61.06Z" fill="#c7d4eb"/><path d="M36.34,45.74a3.1,3.1,0,0,1-2.44-.91,3.61,3.61,0,0,1-.81-2.48V36.94a3.55,3.55,0,0,1,.83-2.49,3.1,3.1,0,0,1,2.42-.9,3.14,3.14,0,0,1,2.44.9,3.59,3.59,0,0,1,.82,2.49v5.41a3.59,3.59,0,0,1-.82,2.49A3.14,3.14,0,0,1,36.34,45.74Zm0-1.59a1.54,1.54,0,0,0,1.27-.48A2,2,0,0,0,38,42.35V36.94a2,2,0,0,0-.39-1.32,1.91,1.91,0,0,0-2.53,0,2,2,0,0,0-.39,1.32v5.41a2,2,0,0,0,.39,1.32A1.53,1.53,0,0,0,36.34,44.15Z" fill="#cfe0f3"/><path d="M28.18,45.72V33.82h1.46v11.9Z" fill="#cde1f3"/><path d="M31.33,61.06a3.08,3.08,0,0,1-2.44-.91,3.6,3.6,0,0,1-.81-2.47V52.26a3.54,3.54,0,0,1,.82-2.49,3.13,3.13,0,0,1,2.43-.9,3.13,3.13,0,0,1,2.43.9,3.54,3.54,0,0,1,.82,2.49v5.42a3.54,3.54,0,0,1-.82,2.48A3.13,3.13,0,0,1,31.33,61.06Zm0-1.59A1.53,1.53,0,0,0,32.59,59,2,2,0,0,0,33,57.68V52.26a2,2,0,0,0-.39-1.32,1.91,1.91,0,0,0-2.53,0,2,2,0,0,0-.39,1.32v5.42A2,2,0,0,0,30.06,59,1.54,1.54,0,0,0,31.33,59.47Z" fill="#cfe0f2"/><path d="M56.2,61.06a3.1,3.1,0,0,1-2.44-.91A3.6,3.6,0,0,1,53,57.68V52.26a3.55,3.55,0,0,1,.83-2.49,3.1,3.1,0,0,1,2.42-.9,3.14,3.14,0,0,1,2.44.9,3.59,3.59,0,0,1,.82,2.49v5.42a3.58,3.58,0,0,1-.82,2.48A3.14,3.14,0,0,1,56.2,61.06Zm0-1.59A1.54,1.54,0,0,0,57.47,59a2,2,0,0,0,.39-1.31V52.26a2,2,0,0,0-.39-1.32,1.91,1.91,0,0,0-2.53,0,2,2,0,0,0-.39,1.32v5.42A2,2,0,0,0,54.94,59,1.53,1.53,0,0,0,56.2,59.47Z" fill="#cfe1f4"/><path d="M61.14,76.23a3.08,3.08,0,0,1-2.44-.91,3.59,3.59,0,0,1-.81-2.47V67.43A3.54,3.54,0,0,1,58.71,65,3.14,3.14,0,0,1,61.14,64a3.1,3.1,0,0,1,2.43.9,3.54,3.54,0,0,1,.82,2.49v5.42a3.54,3.54,0,0,1-.82,2.48A3.1,3.1,0,0,1,61.14,76.23Zm0-1.59a1.55,1.55,0,0,0,1.27-.48,2.06,2.06,0,0,0,.38-1.31V67.43a2.09,2.09,0,0,0-.38-1.32,1.92,1.92,0,0,0-2.54,0,2.09,2.09,0,0,0-.38,1.32v5.42a2.06,2.06,0,0,0,.38,1.31A1.54,1.54,0,0,0,61.14,74.64Z" fill="#cee1f1"/><path d="M51.31,76.23a3.1,3.1,0,0,1-2.44-.91,3.59,3.59,0,0,1-.81-2.47V67.43A3.58,3.58,0,0,1,48.88,65a3.73,3.73,0,0,1,4.87,0,3.59,3.59,0,0,1,.81,2.49v5.42a3.58,3.58,0,0,1-.81,2.48A3.14,3.14,0,0,1,51.31,76.23Zm0-1.59a1.54,1.54,0,0,0,1.27-.48A2,2,0,0,0,53,72.85V67.43a2,2,0,0,0-.39-1.32,1.91,1.91,0,0,0-2.53,0,2,2,0,0,0-.39,1.32v5.42a2,2,0,0,0,.39,1.31A1.53,1.53,0,0,0,51.31,74.64Z" fill="#cddff3"/><path d="M36.61,76.23a3.08,3.08,0,0,1-2.44-.91,3.59,3.59,0,0,1-.81-2.47V67.43A3.54,3.54,0,0,1,34.18,65,3.14,3.14,0,0,1,36.61,64a3.1,3.1,0,0,1,2.43.9,3.54,3.54,0,0,1,.82,2.49v5.42A3.54,3.54,0,0,1,39,75.33,3.1,3.1,0,0,1,36.61,76.23Zm0-1.59a1.54,1.54,0,0,0,1.27-.48,2.06,2.06,0,0,0,.38-1.31V67.43a2.09,2.09,0,0,0-.38-1.32,1.54,1.54,0,0,0-1.27-.48,1.52,1.52,0,0,0-1.26.48A2,2,0,0,0,35,67.43v5.42a2,2,0,0,0,.39,1.31A1.52,1.52,0,0,0,36.61,74.64Z" fill="#cfe2f4"/><path d="M43.1,75.9V64h1.46V75.9Z" fill="#c9d8eb"/><path d="M28.25,76.11V64.22h1.46V76.11Z" fill="#cde1f3"/></svg>